<svg width="54" height="172" viewBox="0 0 54 172" fill="none" xmlns="http://www.w3.org/2000/svg">
<path d="M4.79038 165C4.79038 147.518 3.27169 129.738 4.44464 112.259C5.2953 99.5823 9.00266 89.0034 11.9235 77.2513C13.6357 70.3625 17.0934 64.5994 19.0385 57.836C21.0053 50.9973 22.8893 43.5579 23.4421 36.1429C24.0192 28.4042 23.7879 20.527 23.7879 12.7143C23.7879 9.35076 24.4387 3.91584 23.4603 1" stroke="black" stroke-linecap="round" stroke-linejoin="round"/>
<path d="M51.2887 165C51.2887 147.518 52.6555 129.738 51.5998 112.259C50.8342 99.5823 47.4976 89.0034 44.8688 77.2513C43.3279 70.3625 40.216 64.5994 38.4653 57.836C36.6952 50.9973 34.9997 43.5579 34.5021 36.1429C33.9828 28.4042 34.1909 20.527 34.1909 12.7143C34.1909 9.35076 33.6052 3.91584 34.4857 1" stroke="black" stroke-linecap="round" stroke-linejoin="round"/>
<path d="M51.2537 164.811C45.3454 166.82 39.999 169.199 33.7286 169.199C29.8868 169.199 26.2438 169.687 22.4876 169.687C15.9041 169.687 9.84228 168.407 4.44777 164.811" stroke="black" stroke-linecap="round" stroke-linejoin="round"/>
<path d="M33.7015 0.990051C35.0189 1.24711 38.3854 1.34118 37.4937 2.34439C37.002 2.89754 33.8669 2.45274 33.2139 2.45274C28.9884 2.45274 24.7629 2.45274 20.5373 2.45274" stroke="black" stroke-linecap="round" stroke-linejoin="round"/>
<path d="M3.96021 165.786C3.20236 165.472 -1.0152 163.087 1.76618 164.323C3.00031 164.872 4.1241 165.67 5.17911 166.49C6.04466 167.164 7.18488 166.982 8.10449 167.493C9.1818 168.091 9.75948 168.89 11.0299 169.172C14.6552 169.978 18.2784 170.265 21.9729 170.635C23.4999 170.787 25.0946 170.662 26.6318 170.662C28.2781 170.662 29.0082 169.812 30.5594 169.443C33.92 168.643 37.4341 168.992 40.7441 168.116C43.9952 167.255 46.8662 166.083 50.1703 165.407C51.9523 165.042 52.7252 164.915 50.7662 165.894C48.9172 166.819 47.0229 167.654 45.1321 168.495C43.8182 169.079 41.7499 169.199 40.3107 169.199C38.5647 169.199 33.4182 170.174 35.1642 170.174" stroke="black" stroke-linecap="round" stroke-linejoin="round"/>
<path d="M4.93533 164.323C4.93533 151.955 3.24783 139.379 3.96021 127.269C4.0886 125.086 3.96021 123.002 3.96021 120.93C3.96021 117.522 4.93533 114.233 4.93533 110.935C4.93533 105.64 7.37314 100.635 7.37314 95.3333C7.37314 92.9391 8.71165 90.6231 8.83583 88.2637C9.03706 84.4402 10.6946 80.3261 11.8695 76.6705C13.5418 71.4679 13.1877 64.8589 16.393 60.2289C17.8799 58.0812 18.6142 55.7701 19.183 53.2676C19.47 52.0047 20.5373 51.0035 20.5373 49.7463C20.5373 47.4116 20.8869 45.0953 21.6208 42.8121C22.4301 40.2942 22.4876 36.7508 22.4876 34.1443C22.4876 32.6885 22.537 26.3186 23.4627 25.8557" stroke="black" stroke-linecap="round" stroke-linejoin="round"/>
<path d="M33.2139 2.94031C33.2139 8.67786 34.1891 14.0033 34.1891 19.7612C34.1891 25.3162 33.2262 31.8417 34.2162 37.2864C35.2177 42.795 36.3621 47.9451 37.5749 53.403C39.002 59.825 39.4146 65.978 42.7214 71.9304C43.874 74.005 43.9419 76.4475 44.455 78.7562C45.0582 81.4708 45.786 84.3565 45.8906 87.1802C45.9499 88.7832 45.9572 90.0814 46.351 91.4599C46.6921 92.6537 47.8101 93.1922 48.3284 94.3582C49.649 97.3296 50.1614 99.7706 50.8745 102.891C51.7471 106.708 51.4452 110.893 52.4726 114.592C53.5298 118.398 52.7164 121.828 52.7164 125.698C52.7164 130.648 51.2537 136.033 51.2537 140.92" stroke="black" stroke-linecap="round" stroke-linejoin="round"/>
</svg>
