<svg width="133" height="172" viewBox="0 0 133 172" fill="none" xmlns="http://www.w3.org/2000/svg">
<path d="M4.96205 165.01C4.96205 147.528 3.44337 129.747 4.61631 112.269C5.46698 99.5922 9.17434 89.0133 12.0952 77.2613C13.8074 70.3724 17.265 64.6094 19.2102 57.8459C21.177 51.0073 23.0609 43.5679 23.6138 36.1528C24.1908 28.4141 23.9596 20.5369 23.9596 12.7242C23.9596 9.36071 24.6104 3.92579 23.632 1.00995" stroke="#1EA2EC" stroke-linecap="round" stroke-linejoin="round"/>
<path d="M51.4603 165.01C51.4603 147.528 52.8272 129.747 51.7715 112.269C51.0059 99.5922 47.6693 89.0133 45.0405 77.2613C43.4995 70.3724 40.3877 64.6094 38.637 57.8459C36.8669 51.0073 35.1713 43.5679 34.6737 36.1528C34.1544 28.4141 34.3626 20.5369 34.3626 12.7242C34.3626 9.36071 33.7768 3.92579 34.6574 1.00995" stroke="#1EA2EC" stroke-linecap="round" stroke-linejoin="round"/>
<path d="M51.4254 164.821C45.5171 166.83 40.1707 169.209 33.9003 169.209C30.0585 169.209 26.4154 169.697 22.6592 169.697C16.0758 169.697 10.014 168.417 4.61945 164.821" stroke="#1EA2EC" stroke-linecap="round" stroke-linejoin="round"/>
<path d="M33.8732 1C35.1906 1.25705 38.5571 1.35113 37.6653 2.35434C37.1736 2.90748 34.0386 2.46269 33.3856 2.46269C29.1601 2.46269 24.9345 2.46269 20.709 2.46269" stroke="#1EA2EC" stroke-linecap="round" stroke-linejoin="round"/>
<path d="M4.13189 165.796C3.37404 165.482 -0.843524 163.097 1.93786 164.333C3.17199 164.882 4.29578 165.68 5.35079 166.5C6.21634 167.173 7.35656 166.992 8.27616 167.502C9.35348 168.101 9.93116 168.9 11.2015 169.182C14.8269 169.988 18.4501 170.275 22.1446 170.645C23.6716 170.797 25.2663 170.672 26.8035 170.672C28.4497 170.672 29.1799 169.822 30.7311 169.453C34.0916 168.653 37.6057 169.002 40.9157 168.125C44.1669 167.265 47.0378 166.093 50.3419 165.417C52.124 165.052 52.8969 164.925 50.9379 165.904C49.0889 166.829 47.1946 167.664 45.3038 168.505C43.9899 169.089 41.9216 169.209 40.4824 169.209C38.7363 169.209 33.5898 170.184 35.3359 170.184" stroke="#1EA2EC" stroke-linecap="round" stroke-linejoin="round"/>
<path d="M5.10701 164.333C5.10701 151.965 3.41951 139.389 4.13188 127.279C4.26028 125.096 4.13188 123.012 4.13188 120.94C4.13188 117.532 5.10701 114.243 5.10701 110.945C5.10701 105.65 7.54482 100.645 7.54482 95.3433C7.54482 92.949 8.88332 90.6331 9.0075 88.2736C9.20874 84.4501 10.8662 80.336 12.0412 76.6805C13.7135 71.4779 13.3593 64.8688 16.5647 60.2388C18.0515 58.0912 18.7859 55.7801 19.3547 53.2775C19.6417 52.0146 20.709 51.0135 20.709 49.7562C20.709 47.4216 21.0586 45.1053 21.7925 42.822C22.6018 40.3042 22.6592 36.7608 22.6592 34.1542C22.6592 32.6985 22.7087 26.3285 23.6344 25.8657" stroke="#1EA2EC" stroke-linecap="round" stroke-linejoin="round"/>
<path d="M33.3856 2.95026C33.3856 8.6878 34.3607 14.0132 34.3607 19.7712C34.3607 25.3261 33.3979 31.8516 34.3878 37.2963C35.3894 42.8049 36.5337 47.955 37.7466 53.4129C39.1737 59.8349 39.5862 65.988 42.8931 71.9403C44.0456 74.0149 44.1136 76.4575 44.6266 78.7662C45.2299 81.4807 45.9577 84.3664 46.0622 87.1902C46.1216 88.7932 46.1289 90.0914 46.5227 91.4699C46.8638 92.6636 47.9818 93.2021 48.5 94.3682C49.8207 97.3395 50.3331 99.7806 51.0462 102.9C51.9187 106.718 51.6168 110.903 52.6443 114.602C53.7015 118.408 52.8881 121.838 52.8881 125.708C52.8881 130.658 51.4254 136.043 51.4254 140.93" stroke="#1EA2EC" stroke-linecap="round" stroke-linejoin="round"/>
<path d="M66.0523 49.7562C80.6691 49.7562 95.0946 52.194 109.662 52.194C113.761 52.194 117.793 52.4645 121.878 52.6545C123.658 52.7373 126.066 52.2231 127.485 53.1692" stroke="#1EA2EC" stroke-linecap="round" stroke-linejoin="round"/>
<path d="M68.0025 64.3831C76.5039 65.1332 84.8275 65.3582 93.3558 65.3582" stroke="#1EA2EC" stroke-linecap="round" stroke-linejoin="round"/>
<path d="M68.9776 79.4975C72.9982 79.9152 77.1196 80.4726 81.1667 80.4726" stroke="#1EA2EC" stroke-linecap="round" stroke-linejoin="round"/>
<path d="M71.4155 88.7612C78.7102 88.7612 85.9616 89.2488 93.2474 89.2488C94.084 89.2488 98.1999 88.8242 97.7438 89.7363" stroke="#1EA2EC" stroke-linecap="round" stroke-linejoin="round"/>
<path d="M74.3408 104.363C85.3993 104.568 96.3353 107.825 107.441 108.237C110.593 108.353 113.77 107.267 116.759 108.264" stroke="#1EA2EC" stroke-linecap="round" stroke-linejoin="round"/>
<path d="M75.316 125.328C82.9227 124.821 90.6066 124.353 98.2314 124.353C99.3295 124.353 100.439 124.309 101.536 124.353C102.219 124.381 102.132 125.286 102.132 124.841" stroke="#1EA2EC" stroke-linecap="round" stroke-linejoin="round"/>
<path d="M73.8533 141.418C81.0474 141.418 88.1804 142.881 95.306 142.881" stroke="#1EA2EC" stroke-linecap="round" stroke-linejoin="round"/>
<path d="M77.2662 153.607C92.3521 153.607 107.433 154.095 122.528 154.095C125.231 154.095 128.505 153.611 131.169 154.203C132.565 154.513 131.803 154.929 131.386 154.095" stroke="#1EA2EC" stroke-linecap="round" stroke-linejoin="round"/>
<path d="M127.485 54.1443C128.632 54.8863 131.994 54.9572 130.79 52.6816C130.056 51.2952 129.435 53.5676 129.435 54.1443C129.435 55.4894 128.921 54.0226 127.973 53.5484C126.783 52.9534 126.696 53.6645 128.46 52.194" stroke="#1EA2EC" stroke-linecap="round" stroke-linejoin="round"/>
<path d="M93.3558 65.8458C94.1553 69.9432 95.6091 69.5256 94.8455 66.0896C94.6578 65.2449 94.0096 64.5109 93.3558 63.8955C92.5067 63.0964 92.7621 65.2234 93.1391 65.3311C96.0292 66.1569 93.3558 63.8969 93.3558 66.8209C93.3558 69.7512 95.2174 66.2004 94.3309 64.8706" stroke="#1EA2EC" stroke-linecap="round" stroke-linejoin="round"/>
<path d="M82.1418 79.4975C80.979 82.5984 81.5582 81.598 82.9003 80.2559C84.0289 79.1273 81.9985 79.8896 83.6045 80.9602" stroke="#1EA2EC" stroke-linecap="round" stroke-linejoin="round"/>
<path d="M98.2314 87.7861C98.0595 88.667 97.3892 90.4345 97.7709 91.3886C97.8434 91.57 98.7402 89.9309 98.9356 89.7634C99.7576 89.0589 98.7189 86.7623 98.7189 88.7612" stroke="#1EA2EC" stroke-linecap="round" stroke-linejoin="round"/>
<path d="M116.759 107.289C118.357 111.05 121.357 109.232 119.792 107.668C119.45 107.325 118.687 106.258 118.221 107.072C117.717 107.954 118.709 107.68 118.709 108.751" stroke="#1EA2EC" stroke-linecap="round" stroke-linejoin="round"/>
<path d="M100.669 123.866C104.754 124.581 102.29 122.417 101.265 124.353C100.478 125.84 102.261 125.88 103.107 126.303" stroke="#1EA2EC" stroke-linecap="round" stroke-linejoin="round"/>
<path d="M94.8185 142.881C97.6634 143.947 98.333 142.393 96.2811 142.393" stroke="#1EA2EC" stroke-linecap="round" stroke-linejoin="round"/>
<path d="M130.41 155.07C132.467 157.726 131.873 155.567 131.873 153.607" stroke="#1EA2EC" stroke-linecap="round" stroke-linejoin="round"/>
<path d="M28.51 132.642C22.6827 132.642 20.1021 135.007 16.4293 139.088C14.2021 141.563 13.9618 148.838 15.4542 151.657C17.1149 154.794 22.2913 157.02 25.5846 157.02C31.0786 157.02 34.5179 156.809 38.4779 152.849C41.9053 149.421 43.1173 142.02 40.6991 137.788C39.5381 135.757 36.5822 135.459 34.9567 133.996C32.6718 131.94 32.1002 130.896 28.7538 131.64C27.622 131.891 26.8276 131.479 25.8555 132.127C24.984 132.708 27.9502 132.154 28.9976 132.154C30.1979 132.154 33.0171 134.033 34.0899 134.646C35.2371 135.302 34.0615 136.542 36.0672 136.542C37.0913 136.542 38.0022 135.579 38.8572 136.434C39.6538 137.231 40.2115 137.541 40.2115 138.736C40.2115 139.687 39.8411 141.476 40.6991 141.905" stroke="#1EA2EC" stroke-linecap="round" stroke-linejoin="round"/>
<path d="M20.2214 145.806C21.1984 150.813 23.9778 154.095 29.4851 154.095C34.5288 154.095 35.8234 149.804 35.8234 145.318" stroke="#1EA2EC" stroke-linecap="round" stroke-linejoin="round"/>
<path d="M24.6095 139.955C24.4557 140.744 23.5354 143.642 23.8782 143.368C24.2935 143.036 24.6095 141.946 24.6095 141.418" stroke="#1EA2EC" stroke-linecap="round" stroke-linejoin="round"/>
<path d="M30.9478 141.418C30.9987 143.453 31.4354 144.444 31.4354 142.149C31.4354 141.801 31.4354 139.864 31.4354 140.443" stroke="#1EA2EC" stroke-linecap="round" stroke-linejoin="round"/>
</svg>
