<svg width="133" height="172" viewBox="0 0 133 172" fill="none" xmlns="http://www.w3.org/2000/svg">
<path d="M4.79038 165C4.79038 147.518 3.27169 129.738 4.44464 112.259C5.2953 99.5823 9.00266 89.0034 11.9235 77.2513C13.6357 70.3625 17.0934 64.5994 19.0385 57.836C21.0053 50.9973 22.8893 43.5579 23.4421 36.1429C24.0192 28.4042 23.7879 20.527 23.7879 12.7143C23.7879 9.35076 24.4387 3.91584 23.4603 1" stroke="black" stroke-linecap="round" stroke-linejoin="round"/>
<path d="M51.2887 165C51.2887 147.518 52.6555 129.738 51.5998 112.259C50.8342 99.5823 47.4976 89.0034 44.8688 77.2513C43.3279 70.3625 40.216 64.5994 38.4653 57.836C36.6952 50.9973 34.9997 43.5579 34.5021 36.1429C33.9828 28.4042 34.1909 20.527 34.1909 12.7143C34.1909 9.35076 33.6052 3.91584 34.4857 1" stroke="black" stroke-linecap="round" stroke-linejoin="round"/>
<path d="M51.2537 164.811C45.3454 166.82 39.999 169.199 33.7286 169.199C29.8868 169.199 26.2438 169.687 22.4876 169.687C15.9041 169.687 9.84228 168.407 4.44777 164.811" stroke="black" stroke-linecap="round" stroke-linejoin="round"/>
<path d="M33.7015 0.990051C35.0189 1.24711 38.3854 1.34118 37.4937 2.34439C37.002 2.89754 33.8669 2.45274 33.2139 2.45274C28.9884 2.45274 24.7629 2.45274 20.5373 2.45274" stroke="black" stroke-linecap="round" stroke-linejoin="round"/>
<path d="M3.96021 165.786C3.20236 165.472 -1.0152 163.087 1.76618 164.323C3.00031 164.872 4.1241 165.67 5.17911 166.49C6.04466 167.164 7.18488 166.982 8.10449 167.493C9.1818 168.091 9.75948 168.89 11.0299 169.172C14.6552 169.978 18.2784 170.265 21.9729 170.635C23.4999 170.787 25.0946 170.662 26.6318 170.662C28.2781 170.662 29.0082 169.812 30.5594 169.443C33.92 168.643 37.4341 168.992 40.7441 168.116C43.9952 167.255 46.8662 166.083 50.1703 165.407C51.9523 165.042 52.7252 164.915 50.7662 165.894C48.9172 166.819 47.0229 167.654 45.1321 168.495C43.8182 169.079 41.7499 169.199 40.3107 169.199C38.5647 169.199 33.4182 170.174 35.1642 170.174" stroke="black" stroke-linecap="round" stroke-linejoin="round"/>
<path d="M4.93533 164.323C4.93533 151.955 3.24783 139.379 3.96021 127.269C4.0886 125.086 3.96021 123.002 3.96021 120.93C3.96021 117.522 4.93533 114.233 4.93533 110.935C4.93533 105.64 7.37314 100.635 7.37314 95.3333C7.37314 92.9391 8.71165 90.6231 8.83583 88.2637C9.03706 84.4402 10.6946 80.3261 11.8695 76.6705C13.5418 71.4679 13.1877 64.8589 16.393 60.2289C17.8799 58.0812 18.6142 55.7701 19.183 53.2676C19.47 52.0047 20.5373 51.0035 20.5373 49.7463C20.5373 47.4116 20.8869 45.0953 21.6208 42.8121C22.4301 40.2942 22.4876 36.7508 22.4876 34.1443C22.4876 32.6885 22.537 26.3186 23.4627 25.8557" stroke="black" stroke-linecap="round" stroke-linejoin="round"/>
<path d="M33.2139 2.94031C33.2139 8.67786 34.1891 14.0033 34.1891 19.7612C34.1891 25.3162 33.2262 31.8417 34.2162 37.2864C35.2177 42.795 36.3621 47.9451 37.5749 53.403C39.002 59.825 39.4146 65.978 42.7214 71.9304C43.874 74.005 43.9419 76.4475 44.455 78.7562C45.0582 81.4708 45.786 84.3565 45.8906 87.1802C45.9499 88.7832 45.9572 90.0814 46.351 91.4599C46.6921 92.6537 47.8101 93.1922 48.3284 94.3582C49.649 97.3296 50.1614 99.7706 50.8745 102.891C51.7471 106.708 51.4452 110.893 52.4726 114.592C53.5298 118.398 52.7164 121.828 52.7164 125.698C52.7164 130.648 51.2537 136.033 51.2537 140.92" stroke="black" stroke-linecap="round" stroke-linejoin="round"/>
<path d="M65.8806 49.7463C80.4974 49.7463 94.9229 52.1841 109.49 52.1841C113.589 52.1841 117.622 52.4546 121.706 52.6446C123.486 52.7273 125.894 52.2131 127.313 53.1592" stroke="black" stroke-linecap="round" stroke-linejoin="round"/>
<path d="M67.8309 64.3731C76.3322 65.1233 84.6558 65.3483 93.1841 65.3483" stroke="black" stroke-linecap="round" stroke-linejoin="round"/>
<path d="M68.806 79.4876C72.8266 79.9053 76.9479 80.4627 80.995 80.4627" stroke="black" stroke-linecap="round" stroke-linejoin="round"/>
<path d="M71.2438 88.7513C78.5385 88.7513 85.7899 89.2388 93.0757 89.2388C93.9123 89.2388 98.0282 88.8143 97.5721 89.7264" stroke="black" stroke-linecap="round" stroke-linejoin="round"/>
<path d="M74.1692 104.353C85.2276 104.558 96.1636 107.815 107.269 108.227C110.422 108.343 113.598 107.258 116.587 108.254" stroke="black" stroke-linecap="round" stroke-linejoin="round"/>
<path d="M75.1443 125.318C82.751 124.811 90.4349 124.343 98.0597 124.343C99.1579 124.343 100.267 124.299 101.364 124.343C102.047 124.371 101.96 125.276 101.96 124.831" stroke="black" stroke-linecap="round" stroke-linejoin="round"/>
<path d="M73.6816 141.408C80.8758 141.408 88.0087 142.871 95.1343 142.871" stroke="black" stroke-linecap="round" stroke-linejoin="round"/>
<path d="M77.0945 153.597C92.1805 153.597 107.262 154.085 122.357 154.085C125.059 154.085 128.334 153.601 130.997 154.193C132.393 154.503 131.631 154.919 131.214 154.085" stroke="black" stroke-linecap="round" stroke-linejoin="round"/>
<path d="M127.313 54.1343C128.46 54.8763 131.823 54.9472 130.618 52.6716C129.884 51.2853 129.264 53.5577 129.264 54.1343C129.264 55.4794 128.749 54.0126 127.801 53.5384C126.611 52.9435 126.524 53.6545 128.289 52.1841" stroke="black" stroke-linecap="round" stroke-linejoin="round"/>
<path d="M93.1841 65.8358C93.9836 69.9332 95.4374 69.5157 94.6739 66.0796C94.4862 65.235 93.8379 64.5009 93.1841 63.8856C92.335 63.0865 92.5904 65.2135 92.9674 65.3212C95.8575 66.1469 93.1841 63.887 93.1841 66.8109C93.1841 69.7412 95.0457 66.1905 94.1592 64.8607" stroke="black" stroke-linecap="round" stroke-linejoin="round"/>
<path d="M81.9702 79.4876C80.8073 82.5884 81.3865 81.5881 82.7286 80.246C83.8572 79.1174 81.8269 79.8796 83.4328 80.9503" stroke="black" stroke-linecap="round" stroke-linejoin="round"/>
<path d="M98.0597 87.7761C97.8878 88.6571 97.2176 90.4245 97.5992 91.3787C97.6718 91.56 98.5685 89.921 98.764 89.7535C99.5859 89.0489 98.5473 86.7524 98.5473 88.7512" stroke="black" stroke-linecap="round" stroke-linejoin="round"/>
<path d="M116.587 107.279C118.186 111.04 121.185 109.222 119.621 107.658C119.278 107.315 118.515 106.248 118.05 107.062C117.546 107.944 118.537 107.67 118.537 108.741" stroke="black" stroke-linecap="round" stroke-linejoin="round"/>
<path d="M100.498 123.856C104.582 124.571 102.118 122.407 101.093 124.343C100.306 125.83 102.089 125.871 102.935 126.294" stroke="black" stroke-linecap="round" stroke-linejoin="round"/>
<path d="M94.6468 142.871C97.4918 143.938 98.1613 142.383 96.1095 142.383" stroke="black" stroke-linecap="round" stroke-linejoin="round"/>
<path d="M130.239 155.06C132.296 157.717 131.702 155.557 131.702 153.597" stroke="black" stroke-linecap="round" stroke-linejoin="round"/>
<path d="M28.3383 132.632C22.511 132.632 19.9305 134.998 16.2576 139.078C14.0304 141.553 13.7902 148.828 15.2825 151.647C16.9432 154.784 22.1196 157.01 25.4129 157.01C30.9069 157.01 34.3462 156.799 38.3063 152.839C41.7337 149.411 42.9456 142.01 40.5274 137.778C39.3664 135.747 36.4105 135.449 34.785 133.986C32.5001 131.93 31.9285 130.886 28.5821 131.63C27.4503 131.881 26.6559 131.469 25.6838 132.117C24.8123 132.698 27.7785 132.144 28.8259 132.144C30.0262 132.144 32.8454 134.023 33.9182 134.636C35.0654 135.292 33.8898 136.532 35.8955 136.532C36.9196 136.532 37.8305 135.569 38.6855 136.424C39.4821 137.221 40.0398 137.531 40.0398 138.726C40.0398 139.677 39.6694 141.467 40.5274 141.896" stroke="black" stroke-linecap="round" stroke-linejoin="round"/>
<path d="M20.0498 145.796C21.0267 150.803 23.8061 154.085 29.3134 154.085C34.3571 154.085 35.6517 149.794 35.6517 145.308" stroke="black" stroke-linecap="round" stroke-linejoin="round"/>
<path d="M24.4378 139.945C24.284 140.734 23.3638 143.632 23.7065 143.358C24.1219 143.026 24.4378 141.936 24.4378 141.408" stroke="black" stroke-linecap="round" stroke-linejoin="round"/>
<path d="M30.7761 141.408C30.827 143.443 31.2637 144.435 31.2637 142.139C31.2637 141.791 31.2637 139.854 31.2637 140.433" stroke="black" stroke-linecap="round" stroke-linejoin="round"/>
</svg>
